<svg width="32" height="32" viewBox="0 0 32 32" fill="none" xmlns="http://www.w3.org/2000/svg">
<path fill-rule="evenodd" clip-rule="evenodd" d="M0.999607 11.9992C0.849973 11.9993 0.702261 12.0329 0.567356 12.0976C0.432452 12.1624 0.313796 12.2566 0.220133 12.3733C0.126471 12.49 0.0601905 12.6262 0.0261774 12.7719C-0.00783567 12.9176 -0.00871417 13.0691 0.0236067 13.2152L3.32761 28.0832C3.57423 29.1937 4.19215 30.1869 5.07937 30.8989C5.96658 31.6108 7.07005 31.999 8.20761 31.9992H19.7916C20.9292 31.999 22.0326 31.6108 22.9198 30.8989C23.8071 30.1869 24.425 29.1937 24.6716 28.0832L24.9336 26.9032C26.4635 27.1893 28.0446 26.8698 29.3433 26.0121C30.642 25.1544 31.5566 23.8256 31.894 22.3062C32.2314 20.7869 31.9652 19.1958 31.1517 17.869C30.3381 16.5422 29.0408 15.5835 27.5336 15.1952L27.9756 13.2152C28.0079 13.0691 28.007 12.9176 27.973 12.7719C27.939 12.6262 27.8727 12.49 27.7791 12.3733C27.6854 12.2566 27.5668 12.1624 27.4319 12.0976C27.297 12.0329 27.1492 11.9993 26.9996 11.9992H0.999607ZM25.9996 24.9992C25.7879 24.9993 25.5766 24.9826 25.3676 24.9492L27.1016 17.1532C28.0266 17.4211 28.824 18.0136 29.3474 18.8219C29.8709 19.6302 30.0853 20.6002 29.9514 21.5539C29.8174 22.5075 29.3441 23.3809 28.6182 24.0137C27.8923 24.6466 26.9626 24.9965 25.9996 24.9992ZM5.27961 27.6492L2.24561 13.9992H25.7536L22.7196 27.6492C22.5717 28.3156 22.201 28.9116 21.6687 29.3388C21.1363 29.7661 20.4742 29.999 19.7916 29.9992H8.20761C7.52502 29.999 6.8629 29.7661 6.33056 29.3388C5.79822 28.9116 5.4275 28.3156 5.27961 27.6492Z" fill="#101828"/>
<path d="M8.79951 1.59921L8.79351 1.60721L8.76551 1.64521C8.61999 1.84545 8.48385 2.05234 8.35751 2.26521C8.25019 2.43585 8.15592 2.61435 8.07551 2.79921C8.02351 2.91921 8.00751 2.98321 8.00151 3.00521V3.01321C8.02458 3.19001 8.08675 3.35945 8.18351 3.50921C8.33351 3.77521 8.53951 4.05321 8.79951 4.39921L8.81951 4.4232C9.05551 4.7392 9.33951 5.11721 9.55951 5.50921C9.78351 5.90921 9.99951 6.41921 9.99951 6.99921C9.99951 7.37521 9.86951 7.73521 9.76151 7.98721C9.64591 8.25536 9.51088 8.51471 9.35751 8.7632C9.20061 9.02547 9.03176 9.2804 8.85151 9.5272L8.81551 9.5772L8.80551 9.5932L8.80151 9.5972C8.64265 9.80964 8.4059 9.95027 8.14335 9.98815C7.8808 10.026 7.61395 9.95807 7.40151 9.7992C7.18907 9.64034 7.04844 9.40359 7.01056 9.14104C6.97268 8.87849 7.04065 8.61164 7.19951 8.3992L7.20551 8.3912L7.23351 8.3532C7.37903 8.15296 7.51518 7.94607 7.64151 7.73321C7.74883 7.56257 7.8431 7.38406 7.92351 7.1992C7.97551 7.0792 7.99151 7.01521 7.99751 6.99321C7.97622 6.8138 7.91469 6.64151 7.81751 6.4892C7.63186 6.17891 7.42539 5.88156 7.19951 5.59921L7.17951 5.57521C6.9093 5.22982 6.6621 4.86704 6.43951 4.4892C6.16711 4.03866 6.01555 3.52545 5.99951 2.99921C5.99951 2.62321 6.12951 2.26321 6.23751 2.01121C6.35551 1.73521 6.50551 1.46321 6.64151 1.23521C6.80039 0.974189 6.96918 0.719336 7.14751 0.471205L7.19751 0.401205C7.35638 0.188767 7.59313 0.048138 7.85568 0.0102556C8.11823 -0.0276267 8.38507 0.0403404 8.59751 0.199205C8.80995 0.35807 8.95058 0.594819 8.98846 0.85737C9.02634 1.11992 8.95838 1.38677 8.79951 1.59921ZM14.7995 1.59921L14.7935 1.60721L14.7655 1.64521C14.62 1.84545 14.4838 2.05234 14.3575 2.26521C14.2502 2.43585 14.1559 2.61435 14.0755 2.79921C14.0235 2.91921 14.0075 2.98321 14.0015 3.00521V3.01321C14.0246 3.19001 14.0867 3.35945 14.1835 3.50921C14.3335 3.77521 14.5395 4.05321 14.7995 4.39921L14.8195 4.4232C15.0555 4.7392 15.3395 5.11721 15.5595 5.50921C15.7835 5.90921 15.9995 6.41921 15.9995 6.99921C15.9995 7.37521 15.8695 7.73521 15.7615 7.98721C15.6459 8.25536 15.5109 8.51471 15.3575 8.7632C15.2006 9.02547 15.0318 9.2804 14.8515 9.5272L14.8155 9.5772L14.8055 9.5932L14.8015 9.5972C14.6426 9.80964 14.4059 9.95027 14.1433 9.98815C13.8808 10.026 13.614 9.95807 13.4015 9.7992C13.1891 9.64034 13.0484 9.40359 13.0106 9.14104C12.9727 8.87849 13.0406 8.61164 13.1995 8.3992L13.2055 8.3912L13.2335 8.3532C13.379 8.15296 13.5152 7.94607 13.6415 7.73321C13.7488 7.56257 13.8431 7.38406 13.9235 7.1992C13.9755 7.0792 13.9915 7.01521 13.9975 6.99321C13.9762 6.8138 13.9147 6.64151 13.8175 6.4892C13.6319 6.17891 13.4254 5.88156 13.1995 5.59921L13.1795 5.57521C12.9093 5.22982 12.6621 4.86704 12.4395 4.4892C12.1671 4.03866 12.0156 3.52545 11.9995 2.99921C11.9995 2.62321 12.1295 2.26321 12.2375 2.01121C12.3555 1.73521 12.5055 1.46321 12.6415 1.23521C12.8004 0.974189 12.9692 0.719336 13.1475 0.471205L13.1975 0.401205C13.3564 0.188767 13.5931 0.0481379 13.8557 0.0102556C14.1182 -0.0276268 14.3851 0.0403404 14.5975 0.199205C14.8099 0.35807 14.9506 0.594819 14.9885 0.85737C15.0263 1.11992 14.9584 1.38677 14.7995 1.59921ZM20.7995 1.59921L20.7935 1.60721L20.7655 1.64521C20.62 1.84545 20.4838 2.05234 20.3575 2.26521C20.2502 2.43585 20.1559 2.61435 20.0755 2.79921C20.0235 2.91921 20.0075 2.98321 20.0015 3.00521V3.01321C20.0246 3.19001 20.0867 3.35945 20.1835 3.50921C20.3335 3.77521 20.5395 4.05321 20.7995 4.39921L20.8195 4.4232C21.0555 4.7392 21.3395 5.11721 21.5595 5.50921C21.7835 5.90921 21.9995 6.41921 21.9995 6.99921C21.9995 7.37521 21.8695 7.73521 21.7615 7.98721C21.6459 8.25536 21.5109 8.51471 21.3575 8.7632C21.2013 9.02543 21.0331 9.28036 20.8535 9.5272L20.8155 9.5772L20.8055 9.5932L20.8015 9.5972C20.6426 9.80964 20.4059 9.95027 20.1433 9.98815C19.8808 10.026 19.614 9.95807 19.4015 9.7992C19.1891 9.64034 19.0484 9.40359 19.0106 9.14104C18.9727 8.87849 19.0406 8.61164 19.1995 8.3992L19.2055 8.3912L19.2335 8.3532C19.379 8.15296 19.5152 7.94607 19.6415 7.73321C19.7488 7.56257 19.8431 7.38406 19.9235 7.1992C19.9755 7.0792 19.9915 7.01521 19.9975 6.99321C19.9762 6.8138 19.9147 6.64151 19.8175 6.4892C19.6319 6.17891 19.4254 5.88156 19.1995 5.59921L19.1795 5.57521C18.9093 5.22982 18.6621 4.86704 18.4395 4.4892C18.1671 4.03866 18.0156 3.52545 17.9995 2.99921C17.9995 2.62321 18.1295 2.26321 18.2375 2.01121C18.3555 1.73521 18.5055 1.46321 18.6415 1.23521C18.8004 0.974189 18.9692 0.719336 19.1475 0.471205L19.1975 0.401205C19.3564 0.188767 19.5931 0.0481379 19.8557 0.0102556C20.1182 -0.0276268 20.3851 0.0403404 20.5975 0.199205C20.8099 0.35807 20.9506 0.594819 20.9885 0.85737C21.0263 1.11992 20.9584 1.38677 20.7995 1.59921Z" fill="#101828"/>
</svg>
